<svg t="1681223510414" class="icon" viewBox="0 0 1024 1024" version="1.1" xmlns="http://www.w3.org/2000/svg" p-id="19704" width="200" height="200"><path d="M253.026709 825.14785l232.7178-116.793075L329.441509 398.788l-232.283625 116.793075a130.2525 130.2525 0 0 0-57.745275 173.67l39.07575 77.717325A130.2525 130.2525 0 0 0 253.026709 825.14785z" fill="#515151" p-id="19705"></path><path d="M486.178684 709.223125L329.441509 398.788 348.979384 390.97285a217.0875 217.0875 0 0 0 91.17675-86.834999L599.932534 22.358276A43.4175 43.4175 0 0 1 676.781509 24.094976l316.94775 630.856274a43.4175 43.4175 0 0 1-43.4175 62.5212l-320.42115-39.509925a217.0875 217.0875 0 0 0-124.17405 21.274575z" fill="#515151" p-id="19706"></path><path d="M253.026709 825.14785l212.74575 179.314275a79.8882 79.8882 0 0 0 86.835 10.4202 79.8882 79.8882 0 0 0 15.6303-130.2525l-159.7764-136.33095z" fill="#515151" p-id="19707"></path><path d="M408.461359 748.298875l-155.43465 77.717325 16.49865 13.459425 155.000475-77.717325-16.064475-13.459425z" fill="#515151" p-id="19708"></path></svg>