<svg t="1681916030008" class="icon" viewBox="0 0 1024 1024" version="1.1" xmlns="http://www.w3.org/2000/svg" p-id="1674" width="200" height="200"><path d="M780.093433 461.804784c0 120.238478-103.135962 228.873688-223.376487 228.873688l-89.436962 0-133.983527 89.439008L333.296457 646.045949c-61.558008-38.480406-89.304955-106.321514-89.304955-184.241164 0-120.326483 97.463776-217.792305 217.7043-217.792305l100.605326 0C682.541653 244.01248 780.093433 341.478302 780.093433 461.804784zM958.70846 244.01248l0 536.105001c0 98.642624-80.013335 178.61298-178.615027 178.61298L243.991502 958.730461c-98.774631 0-178.700985-79.969333-178.700985-178.61298L65.290517 244.01248c0-98.730629 79.925331-178.744987 178.700985-178.744987l536.102954 0C878.695125 65.267493 958.70846 145.280828 958.70846 244.01248zM869.401458 288.687982c0-74.03825-59.989279-134.113487-134.069485-134.113487L288.667004 154.574494c-73.994248 0-134.115534 60.075237-134.115534 134.113487l0 446.753997c0 73.994248 60.121286 133.981481 134.115534 133.981481l446.664969 0c74.080206 0 134.069485-59.987233 134.069485-133.981481L869.401458 288.687982z" p-id="1675" fill="#515151"></path></svg>