<svg t="1681223363205" class="icon" viewBox="0 0 1024 1024" version="1.1" xmlns="http://www.w3.org/2000/svg" p-id="18193" width="200" height="200"><path d="M64 960a341.312 341.312 0 1 1 682.688 0H64z m341.312-384c-141.44 0-256-114.56-256-256s114.56-256 256-256 256 114.56 256 256-114.56 256-256 256z m314.176 95.296A320.192 320.192 0 0 1 959.296 960H832c0-111.36-42.688-212.736-112.512-288.704zM633.152 574.08A340.48 340.48 0 0 0 746.688 320a339.84 339.84 0 0 0-43.328-166.528 213.312 213.312 0 0 1-70.208 420.672z" p-id="18194" fill="#707070"></path></svg>