<svg t="1681385073900" class="icon" viewBox="0 0 1024 1024" version="1.1" xmlns="http://www.w3.org/2000/svg" p-id="9930" width="200" height="200"><path d="M629.333333 394.666667h-234.666666c-64 0-117.333333 53.333333-117.333334 117.333333s49.066667 115.2 113.066667 117.333333h238.933333c64 0 117.333333-53.333333 117.333334-117.333333s-49.066667-115.2-113.066667-117.333333h-4.266667z m76.8-292.266667c21.333333 0 38.4 17.066667 38.4 38.4v96c2.133333 2.133333 6.4 4.266667 8.533334 6.4 53.333333 38.4 93.866667 96 119.466666 162.133333 49.066667 6.4 85.333333 46.933333 85.333334 96v89.6c0 49.066667-34.133333 87.466667-81.066667 96-25.6 74.666667-72.533333 138.666667-134.4 177.066667-64 42.666667-136.533333 55.466667-236.8 53.333333h-10.666667c-85.333333-2.133333-142.933333-12.8-196.266666-40.533333-61.866667-34.133333-113.066667-91.733333-145.066667-162.133333L140.8 682.666667c-46.933333-14.933333-78.933333-57.6-78.933333-106.666667v-61.866667c0-51.2 36.266667-96 83.2-108.8 25.6-68.266667 66.133333-128 123.733333-166.4l6.4-4.266666V142.933333c0-21.333333 17.066667-38.4 38.4-38.4s38.4 17.066667 38.4 38.4v59.733334c17.066667-6.4 36.266667-10.666667 55.466667-12.8l10.666666-2.133334 10.666667-2.133333c19.2-2.133333 40.533333-4.266667 61.866667-4.266667h12.8c59.733333 0 113.066667 6.4 160 21.333334V142.933333c4.266667-23.466667 21.333333-40.533333 42.666666-40.533333z" p-id="9931"></path></svg>